{"title":"Mrs Henderson Presents (2005) DVDRip x264 AAC peaSoup","uid":11101208,"size":861603191,"categoryP":"video","categoryS":"movies","magnet":"?xt=urn:btih:cefff446bb2bd1a02b3fe05d5b5c10119f602952&amp;dn=Mrs+Henderson+Presents+%282005%29+DVDRip+x264+AAC+peaSoup&amp;tr=udp%3A%2F%2Ftracker.openbittorrent.com%3A80&amp;tr=udp%3A%2F%2Fopen.demonii.com%3A1337&amp;tr=udp%3A%2F%2Ftracker.coppersurfer.tk%3A6969&amp;tr=udp%3A%2F%2Fexodus.desync.com%3A6969","seeders":1,"leechers":0,"uploader":"peaSoup","files":-1,"time":1411672501,"description":"Laura Henderson buys an old London theater and opens it up as the Windmill, a performance hall which goes down in history for, among other things, its all-nude revues.                                                                             &lt;a href=&quot; http://i.imgur.com/GozhhQU.jpg&quot; rel=&quot;nofollow&quot; target=&quot;_NEW&quot;&gt; http://i.imgur.com/GozhhQU.jpg&lt;/a&gt;                                                      &lt;a href=&quot; http://i.imgur.com/yI2ik2L.jpg&quot; rel=&quot;nofollow&quot; target=&quot;_NEW&quot;&gt; http://i.imgur.com/yI2ik2L.jpg&lt;/a&gt;                                                      &lt;a href=&quot; http://i.imgur.com/LqH1oMr.jpg&quot; rel=&quot;nofollow&quot; target=&quot;_NEW&quot;&gt; http://i.imgur.com/LqH1oMr.jpg&lt;/a&gt;                                                      &lt;a href=&quot; http://i.imgur.com/3wFxTrl.jpg&quot; rel=&quot;nofollow&quot; target=&quot;_NEW&quot;&gt; http://i.imgur.com/3wFxTrl.jpg&lt;/a&gt;                                                      &lt;a href=&quot; http://i.imgur.com/sPi91JK.jpg&quot; rel=&quot;nofollow&quot; target=&quot;_NEW&quot;&gt; http://i.imgur.com/sPi91JK.jpg&lt;/a&gt;                                                       \nFormat                                   : MPEG-4\nFormat profile                           : Base Media / Version 2\nCodec ID                                 : mp42\nFile size                                : 822 MiB\nDuration                                 : 1h 38mn\nOverall bit rate mode                    : Variable\nOverall bit rate                         : 1 164 Kbps\nEncoded date                             : UTC 2014-09-25 16:30:40\nTagged date                              : UTC 2014-09-25 16:41:46\nWriting application                      : HandBrake 0.9.9 2013052900\n\nVideo\nID                                       : 1\nFormat                                   : AVC\nFormat/Info                              : Advanced Video Codec\nFormat profile                           : &lt;a class=&quot;__cf_email__&quot; href=&quot;/cdn-cgi/l/email-protection&quot; data-cfemail=&quot;99d4f8f0f7d9d5adb7a9&quot;&gt;[email&amp;#160;protected]&lt;/a&gt;&lt;script data-cfhash='f9e31' type=&quot;text/javascript&quot;&gt;\n/* &lt;![CDATA[ */!function(){try{var t=&quot;currentScript&quot;in document?document.currentScript:function(){for(var t=document.getElementsByTagName(&quot;script&quot;),e=t.length;e--;)if(t[e].getAttribute(&quot;data-cfhash&quot;))return t[e]}();if(t&amp;&amp;t.previousSibling){var e,r,n,i,c=t.previousSibling,a=c.getAttribute(&quot;data-cfemail&quot;);if(a){for(e=&quot;&quot;,r=parseInt(a.substr(0,2),16),n=2;a.length-n;n+=2)i=parseInt(a.substr(n,2),16)^r,e+=String.fromCharCode(i);e=document.createTextNode(e),c.parentNode.replaceChild(e,c)}t.parentNode.removeChild(t);}}catch(u){}}()/* ]]&gt; */&lt;/script&gt;\nFormat settings, CABAC                   : Yes\nFormat settings, ReFrames                : 4 frames\nCodec ID                                 : avc1\nCodec ID/Info                            : Advanced Video Coding\nDuration                                 : 1h 38mn\nBit rate                                 : 1 000 Kbps\nWidth                                    : 720 pixels\nHeight                                   : 576 pixels\nDisplay aspect ratio                     : 16:9\nFrame rate mode                          : Constant\nFrame rate                               : 25.000 fps\nStandard                                 : PAL\nColor space                              : YUV\nChroma subsampling                       : 4:2:0\nBit depth                                : 8 bits\nScan type                                : Progressive\nBits/(Pixel*Frame)                       : 0.096\nStream size                              : 706 MiB (86%)\nWriting library                          : x264 core 130 r2273 b3065e6\n\nEncoded date                             : UTC 2014-09-25 16:30:40\nTagged date                              : UTC 2014-09-25 16:41:46\nColor primaries                          : BT.601 PAL\nTransfer characteristics                 : BT.709\nMatrix coefficients                      : BT.601\n\nAudio\nID                                       : 2\nFormat                                   : AAC\nFormat/Info                              : Advanced Audio Codec\nFormat profile                           : LC\nCodec ID                                 : 40\nDuration                                 : 1h 38mn\nBit rate mode                            : Variable\nBit rate                                 : 160 Kbps\nMaximum bit rate                         : 192 Kbps\nChannel(s)                               : 2 channels\nChannel positions                        : Front: L R\nSampling rate                            : 48.0 KHz\nCompression mode                         : Lossy\nStream size                              : 113 MiB (14%)\nLanguage                                 : English\nEncoded date                             : UTC 2014-09-25 16:30:40\nTagged date                              : UTC 2014-09-25 16:41:45","torrent":{"xt":"urn:btih:cefff446bb2bd1a02b3fe05d5b5c10119f602952","amp;dn":"Mrs+Henderson+Presents+%282005%29+DVDRip+x264+AAC+peaSoup","amp;tr":["udp%3A%2F%2Ftracker.openbittorrent.com%3A80","udp%3A%2F%2Fopen.demonii.com%3A1337","udp%3A%2F%2Ftracker.coppersurfer.tk%3A6969","udp%3A%2F%2Fexodus.desync.com%3A6969"],"infoHash":"cefff446bb2bd1a02b3fe05d5b5c10119f602952","infoHashBuffer":{"type":"Buffer","data":[206,255,244,70,187,43,209,160,43,63,224,93,91,92,16,17,159,96,41,82]},"announce":[],"urlList":[]}}